<svg width="33" height="41" viewBox="0 0 33 41" fill="none" xmlns="http://www.w3.org/2000/svg">
<path d="M16.0647 3.56738L12.7635 10.7643C12.4615 11.4211 11.807 11.8407 11.0854 11.8407H1.20586C0.539399 11.8407 0 11.3013 0 10.6372V4.77086C0 4.10679 0.539399 3.56738 1.20586 3.56738H16.0647Z" fill="#402F28"/>
<path d="M19.62 20.8213L16.8918 26.6205C16.3836 27.7017 15.2952 28.3921 14.1013 28.3921H1.20586C0.539398 28.3921 0 28.9315 0 29.598V39.6118C0 40.2782 0.539398 40.8176 1.20586 40.8176H7.69312C8.11266 40.8176 8.50344 40.5995 8.7216 40.2399L15.041 29.8857C15.602 28.9651 16.6017 28.4041 17.6805 28.4041H30.9092C31.5756 28.4041 32.115 27.8647 32.115 27.1982V21.3343C32.115 20.6678 31.5756 20.1284 30.9092 20.1284H20.7084C20.2409 20.1284 19.8166 20.3969 19.6176 20.8213H19.62Z" fill="#402F28"/>
<path d="M14.106 40.8172H30.9115C31.5779 40.8172 32.1173 40.2778 32.1173 39.6113V33.7474C32.1173 33.0809 31.5779 32.5415 30.9115 32.5415H20.1785C19.5336 32.5415 18.9366 32.8771 18.601 33.4285L14.1084 40.8172H14.106Z" fill="#402F28"/>
<path d="M30.9116 0H24.1702C23.6979 0 23.2712 0.273305 23.0746 0.702432C21.9766 3.10219 18.347 11.0183 16.7432 14.4992C16.3332 15.3887 15.4414 15.9592 14.4633 15.9592H1.20586C0.539398 15.9592 0 16.4986 0 17.1651V23.029C0 23.6955 0.539398 24.2349 1.20586 24.2349H11.4234C11.8909 24.2349 12.3152 23.9664 12.5142 23.5421L15.3863 17.4408C15.801 16.5586 16.6904 15.9952 17.6662 15.9952H30.914C31.5804 15.9952 32.1198 15.4558 32.1198 14.7893V1.20827C32.1198 0.541806 31.5804 0.0023997 30.914 0.0023997L30.9116 0Z" fill="#402F28"/>
</svg>
