<svg preserveAspectRatio="none" width="100%" height="100%" overflow="visible" style="display: block;" viewBox="0 0 23.3334 17.4167" fill="none" xmlns="http://www.w3.org/2000/svg">
<path id="Icon" d="M9.50006 11.5599C10.8364 10.7578 12.4969 10.7578 13.8333 11.5599M0.833392 12.0833L1.59334 4.19159C1.62215 3.89239 1.63656 3.74278 1.65865 3.61443C1.91913 2.10123 3.13136 0.961989 4.6072 0.843397C4.73238 0.833339 4.87716 0.833339 5.16672 0.833339M22.5001 12.0833L21.7401 4.19159C21.7113 3.89239 21.6969 3.74278 21.6748 3.61443C21.4143 2.10123 20.2021 0.961989 18.7262 0.843397C18.6011 0.833339 18.4563 0.833339 18.1667 0.833339M8.23086 8.90136C9.92313 10.6587 9.92313 13.508 8.23086 15.2653C6.53859 17.0227 3.79487 17.0227 2.10259 15.2653C0.410325 13.508 0.410325 10.6587 2.10259 8.90136C3.79486 7.144 6.53858 7.144 8.23086 8.90136ZM21.2309 8.90136C22.9231 10.6587 22.9231 13.508 21.2309 15.2653C19.5386 17.0227 16.7949 17.0227 15.1026 15.2653C13.4103 13.508 13.4103 10.6587 15.1026 8.90136C16.7949 7.144 19.5386 7.144 21.2309 8.90136Z" stroke="var(--stroke-0, #402F28)" stroke-width="1.66667" stroke-linecap="round" stroke-linejoin="round"/>
</svg>
