<svg preserveAspectRatio="none" width="100%" height="100%" overflow="visible" style="display: block;" viewBox="0 0 21.1668 22.7415" fill="none" xmlns="http://www.w3.org/2000/svg">
<path id="Icon" d="M11.6476 1.39263C11.267 1.08522 11.0767 0.931516 10.8665 0.872433C10.6811 0.8203 10.4857 0.8203 10.3003 0.872433C10.0901 0.931516 9.89985 1.08522 9.51924 1.39263L2.17175 7.32715C1.6806 7.72385 1.43502 7.92219 1.2581 8.1706C1.10139 8.39063 0.984642 8.63851 0.913603 8.90206C0.833407 9.19959 0.833407 9.52267 0.833407 10.1688V18.3081C0.833407 19.5682 0.833407 20.1983 1.06956 20.6796C1.27729 21.103 1.60874 21.4472 2.01643 21.6629C2.4799 21.9081 3.08663 21.9081 4.30007 21.9081H6.46674C6.7701 21.9081 6.92178 21.9081 7.03765 21.8468C7.13957 21.7929 7.22244 21.7068 7.27437 21.601C7.33341 21.4807 7.33341 21.3231 7.33341 21.0081V13.5831C7.33341 12.9531 7.33341 12.638 7.45148 12.3974C7.55535 12.1857 7.72108 12.0136 7.92492 11.9057C8.15666 11.7831 8.46002 11.7831 9.06674 11.7831H12.1001C12.7068 11.7831 13.0102 11.7831 13.2419 11.9057C13.4457 12.0136 13.6115 12.1857 13.7153 12.3974C13.8334 12.638 13.8334 12.9531 13.8334 13.5831V21.0081C13.8334 21.3231 13.8334 21.4807 13.8924 21.601C13.9444 21.7068 14.0272 21.7929 14.1292 21.8468C14.245 21.9081 14.3967 21.9081 14.7001 21.9081H16.8667C18.0802 21.9081 18.6869 21.9081 19.1504 21.6629C19.5581 21.4472 19.8895 21.103 20.0973 20.6796C20.3334 20.1983 20.3334 19.5682 20.3334 18.3081V10.1688C20.3334 9.52267 20.3334 9.19959 20.2532 8.90206C20.1822 8.63851 20.0654 8.39063 19.9087 8.1706C19.7318 7.92219 19.4862 7.72385 18.9951 7.32715L11.6476 1.39263Z" stroke="var(--stroke-0, #402F28)" stroke-width="1.66667" stroke-linecap="round" stroke-linejoin="round"/>
</svg>
