<svg preserveAspectRatio="none" width="100%" height="100%" overflow="visible" style="display: block;" viewBox="0 0 18.3334 16.6667" fill="none" xmlns="http://www.w3.org/2000/svg">
<path id="Icon" d="M14.5834 11.6667C16.1942 11.6667 17.5001 9.24154 17.5001 6.25C17.5001 3.25846 16.1942 0.833333 14.5834 0.833333M14.5834 11.6667C12.9726 11.6667 11.6668 9.24154 11.6668 6.25C11.6668 3.25846 12.9726 0.833333 14.5834 0.833333M14.5834 11.6667L3.70304 9.68842C2.93013 9.54789 2.54367 9.47762 2.23119 9.32413C1.59548 9.01186 1.12205 8.44459 0.928538 7.76327C0.833418 7.42837 0.833418 7.03558 0.833418 6.25C0.833418 5.46442 0.833418 5.07163 0.928538 4.73672C1.12205 4.05541 1.59548 3.48814 2.23119 3.17587C2.54367 3.02238 2.93013 2.95211 3.70304 2.81158L14.5834 0.833333M3.33342 10L3.66163 14.595C3.6928 15.0314 3.70839 15.2495 3.80331 15.4149C3.88689 15.5605 4.01249 15.6774 4.16366 15.7504C4.33535 15.8333 4.5541 15.8333 4.99158 15.8333H6.47691C6.97704 15.8333 7.2271 15.8333 7.41218 15.7336C7.5748 15.646 7.7037 15.5068 7.77861 15.3379C7.86386 15.1457 7.84468 14.8964 7.80632 14.3977L7.50008 10.4167" stroke="var(--stroke-0, #6D4F3B)" stroke-width="1.66667" stroke-linecap="round" stroke-linejoin="round"/>
</svg>
