<svg preserveAspectRatio="none" width="100%" height="100%" overflow="visible" style="display: block;" viewBox="0 0 18.2269 16.6671" fill="none" xmlns="http://www.w3.org/2000/svg">
<path id="Icon" d="M14.1218 11.5307C15.335 12.1402 16.3752 13.1183 17.1345 14.3414C17.2848 14.5836 17.36 14.7047 17.386 14.8724C17.4388 15.2131 17.2058 15.6321 16.8884 15.767C16.7322 15.8333 16.5565 15.8333 16.2051 15.8333M12.4551 7.94353C13.6899 7.32991 14.5384 6.05572 14.5384 4.58333C14.5384 3.11095 13.6899 1.83676 12.4551 1.22313M10.7884 4.58333C10.7884 6.6544 9.10951 8.33333 7.03845 8.33333C4.96738 8.33333 3.28845 6.6544 3.28845 4.58333C3.28845 2.51227 4.96738 0.833333 7.03845 0.833333C9.10951 0.833333 10.7884 2.51227 10.7884 4.58333ZM1.25447 14.1153C2.58306 12.1205 4.67959 10.8333 7.03845 10.8333C9.3973 10.8333 11.4938 12.1205 12.8224 14.1153C13.1135 14.5523 13.259 14.7708 13.2423 15.0499C13.2292 15.2673 13.0867 15.5333 12.9131 15.6647C12.69 15.8333 12.3833 15.8333 11.7698 15.8333H2.30708C1.69359 15.8333 1.38684 15.8333 1.16381 15.6647C0.990153 15.5333 0.847687 15.2673 0.834641 15.0499C0.817887 14.7708 0.963415 14.5523 1.25447 14.1153Z" stroke="var(--stroke-0, #9D7E55)" stroke-width="1.66667" stroke-linecap="round" stroke-linejoin="round"/>
</svg>
