<svg preserveAspectRatio="none" width="100%" height="100%" overflow="visible" style="display: block;" viewBox="0 0 16.6667 16.6667" fill="none" xmlns="http://www.w3.org/2000/svg">
<g id="Icon">
<path d="M5.33334 0.833338H2.16667C1.69996 0.833338 1.46661 0.833338 1.28835 0.924165C1.13154 1.00406 1.00406 1.13154 0.924165 1.28835C0.833338 1.46661 0.833338 1.69996 0.833338 2.16667V5.33334C0.833338 5.80005 0.833338 6.0334 0.924165 6.21166C1.00406 6.36846 1.13154 6.49595 1.28835 6.57584C1.46661 6.66667 1.69996 6.66667 2.16667 6.66667H5.33334C5.80005 6.66667 6.0334 6.66667 6.21166 6.57584C6.36846 6.49595 6.49595 6.36846 6.57584 6.21166C6.66667 6.0334 6.66667 5.80005 6.66667 5.33334V2.16667C6.66667 1.69996 6.66667 1.46661 6.57584 1.28835C6.49595 1.13154 6.36846 1.00406 6.21166 0.924165C6.0334 0.833338 5.80005 0.833338 5.33334 0.833338Z" stroke="var(--stroke-0, #BFAB85)" stroke-width="1.66667" stroke-linecap="round" stroke-linejoin="round"/>
<path d="M14.5 0.833338H11.3333C10.8666 0.833338 10.6333 0.833338 10.455 0.924165C10.2982 1.00406 10.1707 1.13154 10.0908 1.28835C10 1.46661 10 1.69996 10 2.16667V5.33334C10 5.80005 10 6.0334 10.0908 6.21166C10.1707 6.36846 10.2982 6.49595 10.455 6.57584C10.6333 6.66667 10.8666 6.66667 11.3333 6.66667H14.5C14.9667 6.66667 15.2001 6.66667 15.3783 6.57584C15.5351 6.49595 15.6626 6.36846 15.7425 6.21166C15.8333 6.0334 15.8333 5.80005 15.8333 5.33334V2.16667C15.8333 1.69996 15.8333 1.46661 15.7425 1.28835C15.6626 1.13154 15.5351 1.00406 15.3783 0.924165C15.2001 0.833338 14.9667 0.833338 14.5 0.833338Z" stroke="var(--stroke-0, #BFAB85)" stroke-width="1.66667" stroke-linecap="round" stroke-linejoin="round"/>
<path d="M14.5 10H11.3333C10.8666 10 10.6333 10 10.455 10.0908C10.2982 10.1707 10.1707 10.2982 10.0908 10.455C10 10.6333 10 10.8666 10 11.3333V14.5C10 14.9667 10 15.2001 10.0908 15.3783C10.1707 15.5351 10.2982 15.6626 10.455 15.7425C10.6333 15.8333 10.8666 15.8333 11.3333 15.8333H14.5C14.9667 15.8333 15.2001 15.8333 15.3783 15.7425C15.5351 15.6626 15.6626 15.5351 15.7425 15.3783C15.8333 15.2001 15.8333 14.9667 15.8333 14.5V11.3333C15.8333 10.8666 15.8333 10.6333 15.7425 10.455C15.6626 10.2982 15.5351 10.1707 15.3783 10.0908C15.2001 10 14.9667 10 14.5 10Z" stroke="var(--stroke-0, #BFAB85)" stroke-width="1.66667" stroke-linecap="round" stroke-linejoin="round"/>
<path d="M5.33334 10H2.16667C1.69996 10 1.46661 10 1.28835 10.0908C1.13154 10.1707 1.00406 10.2982 0.924165 10.455C0.833338 10.6333 0.833338 10.8666 0.833338 11.3333V14.5C0.833338 14.9667 0.833338 15.2001 0.924165 15.3783C1.00406 15.5351 1.13154 15.6626 1.28835 15.7425C1.46661 15.8333 1.69996 15.8333 2.16667 15.8333H5.33334C5.80005 15.8333 6.0334 15.8333 6.21166 15.7425C6.36846 15.6626 6.49595 15.5351 6.57584 15.3783C6.66667 15.2001 6.66667 14.9667 6.66667 14.5V11.3333C6.66667 10.8666 6.66667 10.6333 6.57584 10.455C6.49595 10.2982 6.36846 10.1707 6.21166 10.0908C6.0334 10 5.80005 10 5.33334 10Z" stroke="var(--stroke-0, #BFAB85)" stroke-width="1.66667" stroke-linecap="round" stroke-linejoin="round"/>
</g>
</svg>
