<svg width="151" height="62" viewBox="0 0 151 62" fill="none" xmlns="http://www.w3.org/2000/svg">
<path d="M6.2253 40.429L0 57.2024H2.93834L4.60506 52.6438H11.4877L13.2043 57.2024H16.1658L9.9638 40.429H6.22862H6.2253ZM5.2857 50.3894L8.05803 42.5439L10.8071 50.3894H5.2857Z" fill="#402F28"/>
<path d="M26.5676 46.3256H26.5211C26.0496 45.6516 25.4885 45.1835 24.8311 44.9145C24.1737 44.6489 23.4698 44.5161 22.7162 44.5161C21.8861 44.5161 21.1424 44.6854 20.485 45.0208C19.8276 45.3561 19.2698 45.8176 18.8183 46.3953C18.3634 46.9764 18.0148 47.6636 17.7724 48.4638C17.5301 49.2639 17.4072 50.1172 17.4072 51.0236C17.4072 51.93 17.5201 52.7767 17.7492 53.5602C17.975 54.3438 18.3136 55.0244 18.7585 55.6054C19.2034 56.1865 19.7546 56.6447 20.402 56.98C21.0528 57.3153 21.7998 57.4846 22.6464 57.4846C23.3835 57.4846 24.0841 57.3253 24.7481 57.0032C25.4121 56.6812 25.9799 56.1765 26.4513 55.4893H26.4978V61.7843H29.1772V44.7983H26.5709V46.3256H26.5676ZM26.4148 52.7501C26.2654 53.2913 26.0463 53.7594 25.7574 54.1579C25.4686 54.5563 25.11 54.8717 24.6883 55.0975C24.2667 55.3232 23.7886 55.4394 23.254 55.4394C22.7195 55.4394 22.2547 55.3265 21.8562 55.0975C21.4578 54.8717 21.1291 54.5496 20.8702 54.1346C20.6112 53.7196 20.4153 53.2448 20.2825 52.7136C20.1497 52.1824 20.0833 51.608 20.0833 50.9971C20.0833 50.3862 20.1497 49.8085 20.2825 49.2573C20.4153 48.7095 20.6112 48.2347 20.8702 47.8363C21.1291 47.4379 21.4545 47.1225 21.8463 46.8967C22.2381 46.6709 22.7062 46.5547 23.2574 46.5547C23.8085 46.5547 24.2667 46.6676 24.6917 46.8967C25.1133 47.1225 25.4719 47.4345 25.7607 47.823C26.0496 48.2148 26.2687 48.6796 26.4181 49.2208C26.5675 49.762 26.6406 50.3463 26.6406 50.9705C26.6406 51.5947 26.5675 52.2056 26.4181 52.7435L26.4148 52.7501Z" fill="#402F28"/>
<path d="M42.5681 54.3836V49.1212C42.5681 47.6005 42.1132 46.4551 41.2068 45.6782C40.2971 44.9013 38.9591 44.5161 37.1894 44.5161C36.5486 44.5161 35.8414 44.5958 35.0745 44.7519C34.3075 44.9079 33.7132 45.0739 33.2882 45.2466L33.8294 47.242C34.3606 47.0228 34.9151 46.8535 35.4862 46.7373C36.0572 46.6211 36.5619 46.5613 37.0002 46.5613C37.9862 46.5613 38.7167 46.7805 39.1848 47.2187C39.6563 47.657 39.8887 48.2911 39.8887 49.1212V49.4034C38.8229 49.4034 37.8202 49.4598 36.8806 49.5661C35.941 49.6756 35.1077 49.8848 34.3772 50.1903C33.6501 50.4957 33.0724 50.9307 32.6508 51.4951C32.2291 52.0595 32.0166 52.7866 32.0166 53.6798C32.0166 54.3704 32.1428 54.958 32.3918 55.4428C32.6408 55.9275 32.9695 56.3226 33.3779 56.6281C33.7862 56.9335 34.2444 57.1526 34.7524 57.2854C35.2604 57.4183 35.7817 57.4846 36.3162 57.4846C37.2259 57.4846 37.9995 57.302 38.6436 56.9335C39.2844 56.565 39.7625 56.0902 40.0779 55.5125H40.1244C40.1543 55.7947 40.1942 56.0935 40.2406 56.4056C40.2871 56.7177 40.3436 56.9866 40.4033 57.2058H42.7772C42.6976 56.7974 42.6444 56.3359 42.6146 55.8179C42.5847 55.3 42.5681 54.8219 42.5681 54.3836ZM39.8887 52.1525C39.8887 52.5907 39.8256 53.0091 39.6995 53.4075C39.5733 53.8059 39.384 54.1645 39.1251 54.4766C38.8661 54.7887 38.5308 55.041 38.1157 55.2269C37.7007 55.4162 37.2193 55.5092 36.6715 55.5092C35.9809 55.5092 35.4662 55.3332 35.121 54.9813C34.7757 54.6293 34.603 54.1545 34.603 53.5602C34.603 53.0755 34.7325 52.6804 34.9915 52.3749C35.2504 52.0695 35.5991 51.8271 36.0373 51.6478C36.4756 51.4685 36.9836 51.3457 37.5646 51.2826C38.1423 51.2195 38.7466 51.1896 39.3741 51.1896H39.892V52.1525H39.8887Z" fill="#402F28"/>
<path d="M52.0134 44.5162C50.4164 44.5162 49.334 45.1604 48.7729 46.442H48.7264V44.7985H46.1201V57.2026H48.7995V50.5789C48.7995 49.875 48.8792 49.2541 49.0352 48.7229C49.1913 48.1917 49.4038 47.7667 49.6694 47.4546C49.935 47.1425 50.2637 46.9101 50.6555 46.7607C51.0472 46.6113 51.4224 46.5449 51.7843 46.5615C52.1927 46.5615 52.528 46.5913 52.7936 46.6544L52.9098 44.5627C52.7538 44.5461 52.5977 44.5362 52.4384 44.5262C52.2823 44.5196 52.1396 44.5129 52.0167 44.5129L52.0134 44.5162Z" fill="#402F28"/>
<path d="M65.1446 40.429H62.3955V57.2024H65.1446V40.429Z" fill="#402F28"/>
<path d="M75.3608 44.5161C74.5308 44.5161 73.7705 44.6921 73.0832 45.044C72.3926 45.396 71.878 45.894 71.5327 46.5348H71.4862V44.795H68.8799V57.1991H71.5593V50.3397C71.5593 49.6491 71.6489 49.0681 71.8282 48.59C72.0075 48.1119 72.2399 47.7234 72.5221 47.4279C72.8043 47.1291 73.1264 46.91 73.485 46.7705C73.8435 46.6311 74.2121 46.558 74.5906 46.558C75.1085 46.558 75.5302 46.6377 75.8589 46.7938C76.1876 46.9498 76.4532 47.1789 76.659 47.4744C76.8615 47.7732 77.0043 48.1417 77.0807 48.58C77.1604 49.0183 77.1969 49.503 77.1969 50.0375V57.2024H79.8763V49.0282C79.8763 47.6504 79.4679 46.5547 78.6544 45.7379C77.841 44.9245 76.742 44.5161 75.3642 44.5161H75.3608Z" fill="#402F28"/>
<path d="M93.1238 45.7379C92.3103 44.9245 91.2114 44.5161 89.8335 44.5161C89.0035 44.5161 88.2431 44.6921 87.5559 45.044C86.8653 45.396 86.3506 45.894 86.0053 46.5348H85.9589V44.795H83.3525V57.1991H86.0319V50.3397C86.0319 49.6491 86.1216 49.0681 86.3008 48.59C86.4801 48.1119 86.7125 47.7234 86.9948 47.4279C87.277 47.1291 87.599 46.91 87.9576 46.7705C88.3162 46.6311 88.6847 46.558 89.0632 46.558C89.5812 46.558 90.0028 46.6377 90.3315 46.7938C90.6602 46.9498 90.9258 47.1789 91.1317 47.4744C91.3342 47.7732 91.477 48.1417 91.5533 48.58C91.633 49.0183 91.6695 49.503 91.6695 50.0375V57.2024H94.3489V49.0282C94.3489 47.6504 93.9405 46.5547 93.1271 45.7379H93.1238Z" fill="#402F28"/>
<path d="M88.1819 16.245H93.9855V13.4627H88.1819C84.377 13.4627 81.2793 16.5604 81.2793 20.3653V24.489H75.5852C76.1728 23.5627 76.5148 22.4637 76.5148 21.2884V13.4627H64.8113V21.2884C64.8113 22.4637 65.1532 23.5627 65.7409 24.489H54.1248C53.152 24.489 52.3585 23.6988 52.3585 22.7227V6.9187H49.5762V22.7227C49.5762 25.2294 51.6147 27.268 54.1215 27.268H70.5286C70.5717 27.268 70.6149 27.268 70.6581 27.268C70.7012 27.268 70.7444 27.268 70.7876 27.268H93.9755V24.4857H84.0516V20.362C84.0516 18.0877 85.9009 16.2384 88.1752 16.2384L88.1819 16.245ZM73.7359 21.2884C73.7359 23.0082 72.3713 24.4193 70.6647 24.4857C68.9615 24.4159 67.5936 23.0082 67.5936 21.2884V16.245H73.7359V21.2884Z" fill="#402F28"/>
<path d="M41.4038 27.1484C41.4038 28.8019 40.0592 30.1466 38.4057 30.1466H35.3047V32.9289H38.4057C41.5931 32.9289 44.1828 30.3358 44.1828 27.1518V14.7842H41.4005V27.1518L41.4038 27.1484Z" fill="#402F28"/>
<path d="M24.9708 6.92212H22.1885V24.2035H24.9708V6.92212Z" fill="#402F28"/>
<path d="M19.9346 30.5913V32.9254H25.549V30.7009H22.1591V30.5913C22.1591 29.9472 22.6837 29.4193 23.3311 29.4193H25.5523V27.1948H23.3311C21.4585 27.1948 19.9379 28.7188 19.9379 30.588L19.9346 30.5913Z" fill="#402F28"/>
<path d="M13.6591 30.1466H8.22071C5.22261 30.1466 2.78229 27.7062 2.78229 24.7081V14.7842H0V24.7081C0 29.2402 3.6887 32.9289 8.22071 32.9289H16.4414V18.4098H13.6591V30.1466Z" fill="#402F28"/>
<path d="M68.1786 10.6739C69.2145 10.6739 70.0545 9.8339 70.0545 8.79801C70.0545 7.76212 69.2145 6.92212 68.1786 6.92212C67.1427 6.92212 66.3027 7.76212 66.3027 8.79801C66.3027 9.8339 67.1427 10.6739 68.1786 10.6739Z" fill="#402F28"/>
<path d="M73.0087 10.6739C74.0447 10.6739 74.8846 9.83403 74.8846 8.79801C74.8846 7.76198 74.0447 6.92212 73.0087 6.92212C71.9727 6.92212 71.1328 7.76198 71.1328 8.79801C71.1328 9.83403 71.9727 10.6739 73.0087 10.6739Z" fill="#402F28"/>
<path d="M9.1835 13.2105C10.2195 13.2105 11.0594 12.3706 11.0594 11.3346C11.0594 10.2986 10.2195 9.45874 9.1835 9.45874C8.14748 9.45874 7.30762 10.2986 7.30762 11.3346C7.30762 12.3706 8.14748 13.2105 9.1835 13.2105Z" fill="#402F28"/>
<path d="M128.771 4.94043L124.199 14.9075C123.781 15.8173 122.874 16.3983 121.875 16.3983H108.192C107.269 16.3983 106.522 15.6513 106.522 14.7316V6.60716C106.522 5.68747 107.269 4.94043 108.192 4.94043H128.771Z" fill="#402F28"/>
<path d="M133.695 28.8355L129.916 36.867C129.212 38.3644 127.705 39.3206 126.052 39.3206H108.192C107.269 39.3206 106.522 40.0676 106.522 40.9906V54.8589C106.522 55.7819 107.269 56.5289 108.192 56.5289H117.177C117.758 56.5289 118.299 56.2268 118.601 55.7288L127.353 41.389C128.13 40.1141 129.515 39.3372 131.009 39.3372H149.329C150.252 39.3372 150.999 38.5901 150.999 37.6671V29.546C150.999 28.623 150.252 27.876 149.329 27.876H135.202C134.555 27.876 133.967 28.2478 133.691 28.8355H133.695Z" fill="#402F28"/>
<path d="M126.059 56.5291H149.333C150.256 56.5291 151.003 55.782 151.003 54.859V46.7379C151.003 45.8149 150.256 45.0679 149.333 45.0679H134.469C133.575 45.0679 132.749 45.5327 132.284 46.2963L126.062 56.5291H126.059Z" fill="#402F28"/>
<path d="M149.333 0H139.996C139.342 0 138.751 0.378506 138.479 0.972814C136.958 4.29629 131.932 15.2595 129.71 20.0803C129.143 21.3121 127.908 22.1023 126.553 22.1023H108.192C107.269 22.1023 106.522 22.8493 106.522 23.7723V31.8934C106.522 32.8164 107.269 33.5635 108.192 33.5635H122.343C122.99 33.5635 123.578 33.1916 123.854 32.604L127.831 24.1541C128.406 22.9323 129.637 22.1521 130.989 22.1521H149.336C150.259 22.1521 151.006 21.4051 151.006 20.4821V1.67336C151.006 0.750359 150.259 0.0033234 149.336 0.0033234L149.333 0Z" fill="#402F28"/>
</svg>
