<svg preserveAspectRatio="none" width="100%" height="100%" overflow="visible" style="display: block;" viewBox="0 0 15.75 17.3333" fill="none" xmlns="http://www.w3.org/2000/svg">
<path id="Icon" d="M11.0417 3.91667V3.28333C11.0417 2.39658 11.0417 1.95321 10.8691 1.61452C10.7173 1.31659 10.4751 1.07437 10.1772 0.922574C9.83846 0.750001 9.39508 0.750001 8.50833 0.750001H7.24167C6.35492 0.750001 5.91154 0.750001 5.57285 0.922574C5.27493 1.07437 5.03271 1.31659 4.88091 1.61452C4.70833 1.95321 4.70833 2.39658 4.70833 3.28333V3.91667M0.75 3.91667H15M13.4167 3.91667V12.7833C13.4167 14.1135 13.4167 14.7785 13.1578 15.2866C12.9301 15.7334 12.5668 16.0968 12.1199 16.3245C11.6119 16.5833 10.9468 16.5833 9.61667 16.5833H6.13333C4.80321 16.5833 4.13815 16.5833 3.63011 16.3245C3.18322 16.0968 2.81989 15.7334 2.59219 15.2866C2.33333 14.7785 2.33333 14.1135 2.33333 12.7833V3.91667" stroke="var(--stroke-0, #876647)" stroke-width="1.5" stroke-linecap="round" stroke-linejoin="round"/>
</svg>
