<svg preserveAspectRatio="none" width="100%" height="100%" overflow="visible" style="display: block;" viewBox="0 0 15.7501 15.0545" fill="none" xmlns="http://www.w3.org/2000/svg">
<path id="Icon" d="M7.87505 14.3044H15.0001M0.750072 14.3044H2.07575C2.46302 14.3044 2.65665 14.3044 2.83888 14.2606C3.00043 14.2218 3.15488 14.1579 3.29654 14.0711C3.45633 13.9731 3.59325 13.8362 3.86709 13.5624L13.8126 3.61688C14.4684 2.96104 14.4684 1.89772 13.8126 1.24188C13.1568 0.58604 12.0934 0.586041 11.4376 1.24188L1.49207 11.1874C1.21823 11.4612 1.08131 11.5981 0.983392 11.7579C0.89658 11.8996 0.832606 12.054 0.79382 12.2156C0.750072 12.3978 0.750072 12.5915 0.750072 12.9787V14.3044Z" stroke="var(--stroke-0, #876647)" stroke-width="1.5" stroke-linecap="round" stroke-linejoin="round"/>
</svg>
