<svg width="27" height="30" viewBox="0 0 27 30" fill="none" xmlns="http://www.w3.org/2000/svg">
<path d="M9.46554 27.75C10.4645 28.6317 11.7767 29.1666 13.2138 29.1666C14.6509 29.1666 15.9631 28.6317 16.962 27.75M21.7138 9.33331C21.7138 7.07897 20.8183 4.91696 19.2242 3.32291C17.6301 1.72885 15.4681 0.833313 13.2138 0.833313C10.9595 0.833313 8.79744 1.72885 7.20338 3.32291C5.60933 4.91696 4.71379 7.07897 4.71379 9.33331C4.71379 13.7111 3.60946 16.7084 2.37582 18.691C1.33522 20.3633 0.814924 21.1995 0.834002 21.4327C0.855127 21.691 0.909844 21.7895 1.11797 21.9439C1.30594 22.0833 2.1533 22.0833 3.848 22.0833H22.5796C24.2743 22.0833 25.1216 22.0833 25.3096 21.9439C25.5177 21.7895 25.5725 21.691 25.5936 21.4327C25.6127 21.1995 25.0924 20.3633 24.0518 18.691C22.8181 16.7084 21.7138 13.7111 21.7138 9.33331Z" stroke="#6D4F3B" stroke-width="1.66667" stroke-linecap="round" stroke-linejoin="round"/>
</svg>
