<svg preserveAspectRatio="none" width="100%" height="100%" overflow="visible" style="display: block;" viewBox="0 0 30 30" fill="none" xmlns="http://www.w3.org/2000/svg">
<path id="Icon" d="M10.75 15L13.5833 17.8333L19.9583 11.4583M23.36 5.08122C23.6517 5.78675 24.2117 6.34756 24.9167 6.64035L27.3891 7.66447C28.0946 7.95673 28.6552 8.51732 28.9475 9.22292C29.2397 9.92851 29.2397 10.7213 28.9475 11.4269L27.9241 13.8976C27.6317 14.6035 27.6313 15.3971 27.9251 16.1026L28.9466 18.5725C29.0915 18.922 29.1661 19.2966 29.1662 19.6749C29.1662 20.0532 29.0917 20.4279 28.947 20.7774C28.8022 21.1269 28.59 21.4445 28.3224 21.7119C28.0549 21.9794 27.7373 22.1915 27.3877 22.3362L24.9172 23.3596C24.2117 23.6513 23.6509 24.2113 23.3581 24.9163L22.334 27.3888C22.0418 28.0944 21.4812 28.655 20.7756 28.9472C20.0701 29.2395 19.2773 29.2395 18.5717 28.9472L16.1012 27.9239C15.3956 27.6323 14.6031 27.6329 13.8979 27.9255L11.4256 28.9482C10.7204 29.2397 9.92835 29.2395 9.22336 28.9475C8.51836 28.6554 7.95811 28.0955 7.66565 27.3907L6.64127 24.9175C6.34955 24.212 5.7896 23.6512 5.08453 23.3584L2.61219 22.3343C1.90693 22.0421 1.34653 21.4819 1.05417 20.7767C0.761804 20.0715 0.761407 19.2791 1.05306 18.5736L2.07641 16.1029C2.36794 15.3973 2.36735 14.6048 2.07475 13.8997L1.05288 11.4254C0.907996 11.076 0.833394 10.7014 0.833333 10.3231C0.833273 9.94475 0.907755 9.57013 1.05252 9.22061C1.19729 8.8711 1.40951 8.55353 1.67705 8.28607C1.9446 8.0186 2.26222 7.80648 2.61177 7.66181L5.08234 6.63843C5.78723 6.34696 6.34769 5.7877 6.64068 5.08341L7.66476 2.61098C7.95701 1.90539 8.51758 1.3448 9.22315 1.05253C9.92871 0.760267 10.7215 0.760267 11.427 1.05253L13.8976 2.07591C14.6032 2.36746 15.3957 2.36686 16.1008 2.07426L18.5742 1.05412C19.2797 0.762018 20.0723 0.762078 20.7777 1.05429C21.4831 1.34649 22.0436 1.90692 22.3359 2.61233L23.3603 5.0855L23.36 5.08122Z" stroke="var(--stroke-0, #9D7E55)" stroke-width="1.66667" stroke-linecap="round" stroke-linejoin="round"/>
</svg>
