<svg preserveAspectRatio="none" width="100%" height="100%" overflow="visible" style="display: block;" viewBox="0 0 77.5009 45.0682" fill="none" xmlns="http://www.w3.org/2000/svg">
<g id="Typo">
<path id="Vector" d="M5.11364 27.5264L0 41.3046H2.41364L3.78273 37.56H9.43637L10.8464 41.3046H13.2791L8.18455 27.5264H5.11637H5.11364ZM4.34182 35.7082L6.6191 29.2636L8.87728 35.7082H4.34182Z" fill="var(--fill-0, #402F28)"/>
<path id="Vector_2" d="M21.8237 32.37H21.7855C21.3982 31.8164 20.9373 31.4319 20.3973 31.2109C19.8573 30.9928 19.2791 30.8837 18.66 30.8837C17.9782 30.8837 17.3673 31.0228 16.8273 31.2982C16.2873 31.5737 15.8291 31.9528 15.4582 32.4273C15.0846 32.9046 14.7982 33.4691 14.5991 34.1264C14.4 34.7837 14.2991 35.4846 14.2991 36.2291C14.2991 36.9737 14.3918 37.6691 14.58 38.3128C14.7655 38.9564 15.0437 39.5155 15.4091 39.9928C15.7746 40.47 16.2273 40.8464 16.7591 41.1219C17.2937 41.3973 17.9073 41.5364 18.6027 41.5364C19.2082 41.5364 19.7837 41.4055 20.3291 41.141C20.8746 40.8764 21.3409 40.4619 21.7282 39.8973H21.7664V45.0682H23.9673V31.1155H21.8264V32.37H21.8237ZM21.6982 37.6473C21.5755 38.0919 21.3955 38.4764 21.1582 38.8037C20.9209 39.131 20.6264 39.39 20.28 39.5755C19.9337 39.7609 19.5409 39.8564 19.1018 39.8564C18.6627 39.8564 18.2809 39.7637 17.9537 39.5755C17.6264 39.39 17.3564 39.1255 17.1437 38.7846C16.9309 38.4437 16.77 38.0537 16.6609 37.6173C16.5518 37.1809 16.4973 36.7091 16.4973 36.2073C16.4973 35.7055 16.5518 35.2309 16.6609 34.7782C16.77 34.3282 16.9309 33.9382 17.1437 33.6109C17.3564 33.2837 17.6237 33.0246 17.9455 32.8391C18.2673 32.6537 18.6518 32.5582 19.1046 32.5582C19.5573 32.5582 19.9336 32.651 20.2827 32.8391C20.6291 33.0246 20.9236 33.2809 21.1609 33.6C21.3982 33.9219 21.5782 34.3037 21.7009 34.7482C21.8237 35.1928 21.8836 35.6728 21.8836 36.1855C21.8836 36.6982 21.8237 37.2 21.7009 37.6419L21.6982 37.6473Z" fill="var(--fill-0, #402F28)"/>
<path id="Vector_3" d="M34.9664 38.9891V34.6664C34.9664 33.4173 34.5927 32.4764 33.8482 31.8382C33.1009 31.2 32.0018 30.8837 30.5482 30.8837C30.0218 30.8837 29.4409 30.9491 28.8109 31.0773C28.1809 31.2055 27.6927 31.3419 27.3437 31.4837L27.7882 33.1228C28.2246 32.9428 28.68 32.8037 29.1491 32.7082C29.6182 32.6128 30.0327 32.5637 30.3927 32.5637C31.2027 32.5637 31.8027 32.7437 32.1873 33.1037C32.5746 33.4637 32.7655 33.9846 32.7655 34.6664V34.8982C31.89 34.8982 31.0664 34.9446 30.2946 35.0319C29.5227 35.1219 28.8382 35.2937 28.2382 35.5446C27.6409 35.7955 27.1664 36.1528 26.82 36.6164C26.4736 37.08 26.2991 37.6773 26.2991 38.4109C26.2991 38.9782 26.4027 39.4609 26.6073 39.8591C26.8118 40.2573 27.0818 40.5819 27.4173 40.8328C27.7527 41.0837 28.1291 41.2637 28.5464 41.3728C28.9637 41.4819 29.3918 41.5364 29.8309 41.5364C30.5782 41.5364 31.2137 41.3864 31.7427 41.0837C32.2691 40.7809 32.6618 40.3909 32.9209 39.9164H32.9591C32.9837 40.1482 33.0164 40.3937 33.0546 40.65C33.0927 40.9064 33.1391 41.1273 33.1882 41.3073H35.1382C35.0727 40.9719 35.0291 40.5928 35.0046 40.1673C34.98 39.7419 34.9664 39.3491 34.9664 38.9891ZM32.7655 37.1564C32.7655 37.5164 32.7137 37.86 32.61 38.1873C32.5064 38.5146 32.3509 38.8091 32.1382 39.0655C31.9255 39.3218 31.65 39.5291 31.3091 39.6819C30.9682 39.8373 30.5727 39.9137 30.1227 39.9137C29.5555 39.9137 29.1327 39.7691 28.8491 39.48C28.5655 39.1909 28.4237 38.801 28.4237 38.3128C28.4237 37.9146 28.53 37.59 28.7427 37.3391C28.9555 37.0882 29.2418 36.8891 29.6018 36.7419C29.9618 36.5946 30.3791 36.4937 30.8564 36.4418C31.3309 36.39 31.8273 36.3655 32.3427 36.3655H32.7682V37.1564H32.7655Z" fill="var(--fill-0, #402F28)"/>
<path id="Vector_4" d="M42.7255 30.8836C41.4136 30.8836 40.5245 31.4127 40.0636 32.4655H40.0255V31.1155H37.8846V41.3045H40.0855V35.8636C40.0855 35.2855 40.1509 34.7755 40.2791 34.3391C40.4073 33.9027 40.5818 33.5536 40.8 33.2973C41.0182 33.0409 41.2882 32.85 41.61 32.7273C41.9318 32.6045 42.24 32.55 42.5373 32.5636C42.8727 32.5636 43.1482 32.5882 43.3664 32.64L43.4618 30.9218C43.3336 30.9082 43.2055 30.9 43.0746 30.8918C42.9464 30.8864 42.8291 30.8809 42.7282 30.8809L42.7255 30.8836Z" fill="var(--fill-0, #402F28)"/>
<path id="Vector_5" d="M53.5118 27.5264H51.2536V41.3046H53.5118V27.5264Z" fill="var(--fill-0, #402F28)"/>
<path id="Vector_6" d="M61.9036 30.8837C61.2218 30.8837 60.5973 31.0282 60.0327 31.3173C59.4654 31.6064 59.0427 32.0155 58.7591 32.5419H58.7209V31.1128H56.58V41.3019H58.7809V35.6673C58.7809 35.1 58.8545 34.6228 59.0018 34.23C59.1491 33.8373 59.34 33.5182 59.5718 33.2755C59.8036 33.03 60.0682 32.85 60.3627 32.7355C60.6573 32.621 60.96 32.5609 61.2709 32.5609C61.6964 32.5609 62.0427 32.6264 62.3127 32.7546C62.5827 32.8828 62.8009 33.0709 62.97 33.3137C63.1364 33.5591 63.2536 33.8619 63.3164 34.2219C63.3818 34.5819 63.4118 34.98 63.4118 35.4191V41.3046H65.6127V34.59C65.6127 33.4582 65.2773 32.5582 64.6091 31.8873C63.9409 31.2191 63.0382 30.8837 61.9063 30.8837H61.9036Z" fill="var(--fill-0, #402F28)"/>
<path id="Vector_7" d="M76.4945 31.8873C75.8263 31.2191 74.9236 30.8837 73.7918 30.8837C73.11 30.8837 72.4854 31.0282 71.9209 31.3173C71.3536 31.6064 70.9309 32.0155 70.6472 32.5419H70.6091V31.1128H68.4682V41.3019H70.6691V35.6673C70.6691 35.1 70.7427 34.6228 70.89 34.23C71.0372 33.8373 71.2282 33.5182 71.46 33.2755C71.6918 33.03 71.9563 32.85 72.2509 32.7355C72.5454 32.621 72.8482 32.5609 73.1591 32.5609C73.5845 32.5609 73.9309 32.6264 74.2009 32.7546C74.4709 32.8828 74.6891 33.0709 74.8582 33.3137C75.0245 33.5591 75.1418 33.8619 75.2045 34.2219C75.27 34.5819 75.3 34.98 75.3 35.4191V41.3046H77.5009V34.59C77.5009 33.4582 77.1654 32.5582 76.4972 31.8873H76.4945Z" fill="var(--fill-0, #402F28)"/>
<path id="Vector_8" d="M72.4354 7.66092H77.2027V5.37546H72.4354C69.31 5.37546 66.7655 7.92 66.7655 11.0455V14.4327H62.0882C62.5709 13.6718 62.8518 12.7691 62.8518 11.8036V5.37546H53.2382V11.8036C53.2382 12.7691 53.5191 13.6718 54.0018 14.4327H44.46C43.6609 14.4327 43.0091 13.7836 43.0091 12.9818V0H40.7236V12.9818C40.7236 15.0409 42.3982 16.7155 44.4573 16.7155H57.9345C57.97 16.7155 58.0054 16.7155 58.0409 16.7155C58.0764 16.7155 58.1118 16.7155 58.1473 16.7155H77.1945V14.43H69.0427V11.0427C69.0427 9.17454 70.5618 7.65546 72.43 7.65546L72.4354 7.66092ZM60.5691 11.8036C60.5691 13.2164 59.4482 14.3755 58.0464 14.43C56.6473 14.3727 55.5236 13.2164 55.5236 11.8036V7.66092H60.5691V11.8036Z" fill="var(--fill-0, #402F28)"/>
<path id="Vector_9" d="M34.01 16.6173C34.01 17.9755 32.9055 19.08 31.5473 19.08H29V21.3655H31.5473C34.1655 21.3655 36.2927 19.2355 36.2927 16.62V6.46094H34.0073V16.62L34.01 16.6173Z" fill="var(--fill-0, #402F28)"/>
<path id="Vector_10" d="M20.5118 0.00274658H18.2263V14.1982H20.5118V0.00274658Z" fill="var(--fill-0, #402F28)"/>
<path id="Vector_11" d="M16.3745 19.4455V21.3627H20.9864V19.5355H18.2018V19.4455C18.2018 18.9164 18.6327 18.4827 19.1645 18.4827H20.9891V16.6555H19.1645C17.6264 16.6555 16.3773 17.9073 16.3773 19.4427L16.3745 19.4455Z" fill="var(--fill-0, #402F28)"/>
<path id="Vector_12" d="M11.22 19.08H6.75273C4.29 19.08 2.28546 17.0755 2.28546 14.6128V6.46094H0V14.6128C0 18.3355 3.03 21.3655 6.75273 21.3655H13.5055V9.43911H11.22V19.08Z" fill="var(--fill-0, #402F28)"/>
<path id="Vector_13" d="M56.0036 3.08457C56.8546 3.08457 57.5446 2.39456 57.5446 1.54365C57.5446 0.692745 56.8546 0.00274658 56.0036 0.00274658C55.1527 0.00274658 54.4627 0.692745 54.4627 1.54365C54.4627 2.39456 55.1527 3.08457 56.0036 3.08457Z" fill="var(--fill-0, #402F28)"/>
<path id="Vector_14" d="M59.9718 3.08457C60.8228 3.08457 61.5127 2.39467 61.5127 1.54365C61.5127 0.692633 60.8228 0.00274658 59.9718 0.00274658C59.1208 0.00274658 58.4309 0.692633 58.4309 1.54365C58.4309 2.39467 59.1208 3.08457 59.9718 3.08457Z" fill="var(--fill-0, #402F28)"/>
<path id="Vector_15" d="M7.54362 5.16818C8.39464 5.16818 9.08453 4.47828 9.08453 3.62726C9.08453 2.77624 8.39464 2.08636 7.54362 2.08636C6.6926 2.08636 6.00272 2.77624 6.00272 3.62726C6.00272 4.47828 6.6926 5.16818 7.54362 5.16818Z" fill="var(--fill-0, #402F28)"/>
</g>
</svg>
