<svg width="26" height="26" viewBox="0 0 26 26" fill="none" xmlns="http://www.w3.org/2000/svg">
<path d="M10.1781 20.9852L10.8113 22.4092C10.9995 22.8331 11.3067 23.1932 11.6955 23.446C12.0844 23.6987 12.5382 23.8332 13.002 23.8332C13.4658 23.8332 13.9197 23.6987 14.3085 23.446C14.6974 23.1932 15.0045 22.8331 15.1928 22.4092L15.8259 20.9852C16.0513 20.4799 16.4304 20.0587 16.9092 19.7815C17.3911 19.5036 17.9485 19.3852 18.5017 19.4433L20.0509 19.6082C20.512 19.6569 20.9774 19.5709 21.3906 19.3604C21.8039 19.15 22.1471 18.8242 22.3789 18.4225C22.6109 18.0211 22.7214 17.561 22.6971 17.098C22.6727 16.6349 22.5145 16.189 22.2416 15.8141L21.3244 14.5538C20.9978 14.1017 20.8233 13.5576 20.8261 12.9998C20.826 12.4436 21.0021 11.9017 21.3292 11.4519L22.2465 10.1916C22.5193 9.81674 22.6775 9.37075 22.7019 8.90773C22.7262 8.44472 22.6157 7.98459 22.3837 7.58317C22.152 7.18151 21.8087 6.8557 21.3955 6.64525C20.9823 6.4348 20.5169 6.34874 20.0557 6.39752L18.5066 6.56243C17.9533 6.62053 17.3959 6.50213 16.9141 6.22419C16.4343 5.94544 16.055 5.52197 15.8307 5.01447L15.1928 3.59049C15.0045 3.16661 14.6974 2.80645 14.3085 2.55369C13.9197 2.30093 13.4658 2.16643 13.002 2.1665C12.5382 2.16643 12.0844 2.30093 11.6955 2.55369C11.3067 2.80645 10.9995 3.16661 10.8113 3.59049L10.1781 5.01447C9.9538 5.52197 9.57457 5.94544 9.09479 6.22419C8.61294 6.50213 8.05552 6.62053 7.50229 6.56243L5.94831 6.39752C5.48717 6.34874 5.02178 6.4348 4.60857 6.64525C4.19536 6.8557 3.85208 7.18151 3.62035 7.58317C3.38832 7.98459 3.27778 8.44472 3.30214 8.90773C3.32649 9.37075 3.4847 9.81674 3.75757 10.1916L4.67479 11.4519C5.00189 11.9017 5.17804 12.4436 5.17794 12.9998C5.17804 13.556 5.00189 14.098 4.67479 14.5478L3.75757 15.8081C3.4847 16.1829 3.32649 16.6289 3.30214 17.0919C3.27778 17.555 3.38832 18.0151 3.62035 18.4165C3.85231 18.818 4.19563 19.1436 4.60878 19.354C5.02193 19.5644 5.4872 19.6506 5.94831 19.6022L7.49748 19.4372C8.0507 19.3791 8.60813 19.4975 9.08998 19.7755C9.57155 20.0534 9.95254 20.477 10.1781 20.9852Z" stroke="#6D4F3B" stroke-width="1.66667" stroke-linecap="round" stroke-linejoin="round"/>
<path d="M13.0001 16.2498C14.795 16.2498 16.2501 14.7948 16.2501 12.9998C16.2501 11.2049 14.795 9.74984 13.0001 9.74984C11.2052 9.74984 9.75008 11.2049 9.75008 12.9998C9.75008 14.7948 11.2052 16.2498 13.0001 16.2498Z" stroke="#6D4F3B" stroke-width="1.66667" stroke-linecap="round" stroke-linejoin="round"/>
</svg>
