<svg preserveAspectRatio="none" width="100%" height="100%" overflow="visible" style="display: block;" viewBox="0 0 16.6667 16.6667" fill="none" xmlns="http://www.w3.org/2000/svg">
<path id="Icon" d="M5.83333 0.833334V15.8333M4.83333 0.833334H11.8333C13.2335 0.833334 13.9335 0.833334 14.4683 1.10582C14.9387 1.3455 15.3212 1.72795 15.5608 2.19836C15.8333 2.73314 15.8333 3.4332 15.8333 4.83333V11.8333C15.8333 13.2335 15.8333 13.9335 15.5608 14.4683C15.3212 14.9387 14.9387 15.3212 14.4683 15.5608C13.9335 15.8333 13.2335 15.8333 11.8333 15.8333H4.83333C3.4332 15.8333 2.73314 15.8333 2.19836 15.5608C1.72795 15.3212 1.3455 14.9387 1.10582 14.4683C0.833334 13.9335 0.833334 13.2335 0.833334 11.8333V4.83333C0.833334 3.4332 0.833334 2.73314 1.10582 2.19836C1.3455 1.72795 1.72795 1.3455 2.19836 1.10582C2.73314 0.833334 3.4332 0.833334 4.83333 0.833334Z" stroke="var(--stroke-0, #BFAB85)" stroke-width="1.66667" stroke-linecap="round" stroke-linejoin="round"/>
</svg>
