<svg preserveAspectRatio="none" width="100%" height="100%" overflow="visible" style="display: block;" viewBox="0 0 32.1198 40.8174" fill="none" xmlns="http://www.w3.org/2000/svg">
<g id="Group">
<path id="Vector" d="M16.0647 3.56724L12.7635 10.7641C12.4615 11.421 11.807 11.8405 11.0854 11.8405H1.20586C0.539399 11.8405 0 11.3011 0 10.6371V4.77072C0 4.10665 0.539399 3.56724 1.20586 3.56724H16.0647Z" fill="var(--fill-0, #402F28)"/>
<path id="Vector_2" d="M19.62 20.8211L16.8918 26.6203C16.3836 27.7015 15.2952 28.3919 14.1013 28.3919H1.20586C0.539399 28.3919 0 28.9313 0 29.5978V39.6116C0 40.278 0.539399 40.8174 1.20586 40.8174H7.69312C8.11266 40.8174 8.50344 40.5993 8.7216 40.2397L15.041 29.8855C15.602 28.9649 16.6017 28.4039 17.6805 28.4039H30.9092C31.5756 28.4039 32.115 27.8645 32.115 27.198V21.3341C32.115 20.6676 31.5756 20.1282 30.9092 20.1282H20.7084C20.2409 20.1282 19.8166 20.3967 19.6176 20.8211H19.62Z" fill="var(--fill-0, #402F28)"/>
<path id="Vector_3" d="M14.1061 40.8174H30.9116C31.578 40.8174 32.1174 40.278 32.1174 39.6116V33.7476C32.1174 33.0811 31.578 32.5417 30.9116 32.5417H20.1786C19.5337 32.5417 18.9367 32.8774 18.6011 33.4288L14.1085 40.8174H14.1061Z" fill="var(--fill-0, #402F28)"/>
<path id="Vector_4" d="M30.9116 0H24.1702C23.6979 0 23.2712 0.273305 23.0746 0.702432C21.9766 3.10219 18.347 11.0183 16.7432 14.4992C16.3332 15.3887 15.4414 15.9592 14.4633 15.9592H1.20587C0.539406 15.9592 7.31616e-06 16.4986 7.31616e-06 17.1651V23.029C7.31616e-06 23.6955 0.539406 24.2349 1.20587 24.2349H11.4234C11.8909 24.2349 12.3153 23.9664 12.5142 23.5421L15.3863 17.4408C15.801 16.5586 16.6904 15.9952 17.6662 15.9952H30.914C31.5804 15.9952 32.1198 15.4558 32.1198 14.7893V1.20827C32.1198 0.541806 31.5804 0.0023997 30.914 0.0023997L30.9116 0Z" fill="var(--fill-0, #402F28)"/>
</g>
</svg>
