<svg preserveAspectRatio="none" width="100%" height="100%" overflow="visible" style="display: block;" viewBox="0 0 20.4167 16.25" fill="none" xmlns="http://www.w3.org/2000/svg">
<path id="Icon" d="M0.833333 3.95833L13.3333 3.95833M13.3333 3.95833C13.3333 5.68422 14.7324 7.08333 16.4583 7.08333C18.1842 7.08333 19.5833 5.68422 19.5833 3.95833C19.5833 2.23244 18.1842 0.833333 16.4583 0.833333C14.7324 0.833333 13.3333 2.23244 13.3333 3.95833ZM7.08333 12.2917L19.5833 12.2917M7.08333 12.2917C7.08333 14.0176 5.68422 15.4167 3.95833 15.4167C2.23244 15.4167 0.833333 14.0176 0.833333 12.2917C0.833333 10.5658 2.23244 9.16667 3.95833 9.16667C5.68422 9.16667 7.08333 10.5658 7.08333 12.2917Z" stroke="var(--stroke-0, #6D4F3B)" stroke-width="1.66667" stroke-linecap="round" stroke-linejoin="round"/>
</svg>
