<svg preserveAspectRatio="none" width="100%" height="100%" overflow="visible" style="display: block;" viewBox="0 0 1116 36" fill="none" xmlns="http://www.w3.org/2000/svg">
<g id="Frame 261">
<g id="Frame 251">
<path d="M0 18C0 8.05887 8.05888 0 18 0H177C186.941 0 195 8.05887 195 18V18C195 27.9411 186.941 36 177 36H18C8.05887 36 0 27.9411 0 18V18Z" fill="var(--fill-0, #EAE5D7)"/>
<path d="M0 18C0 8.05887 8.05888 0 18 0H177C186.941 0 195 8.05887 195 18V18C195 27.9411 186.941 36 177 36H18C8.05887 36 0 27.9411 0 18V18Z" fill="var(--fill-1, #EAE5D7)"/>
</g>
<line id="Line 11" x1="206.6" y1="9" x2="206.6" y2="27" stroke="var(--stroke-0, #BFAB85)"/>
<g id="Frame 374">
<rect x="217.2" width="90" height="36" rx="18" fill="var(--fill-0, #F2EDE1)"/>
</g>
<g id="Frame 375">
<rect x="318.3" width="90" height="36" rx="18" fill="var(--fill-0, #F2EDE1)"/>
<rect x="318.3" width="90" height="36" rx="18" fill="var(--fill-1, #EAE5D7)"/>
</g>
<g id="Frame 376">
<rect x="419.4" width="90" height="36" rx="18" fill="var(--fill-0, #F2EDE1)"/>
</g>
<g id="Frame 377">
<rect x="520.5" width="90" height="36" rx="18" fill="var(--fill-0, #F2EDE1)"/>
<rect x="520.5" width="90" height="36" rx="18" fill="var(--fill-1, #EAE5D7)"/>
</g>
<g id="Frame 378">
<rect x="621.6" width="90" height="36" rx="18" fill="var(--fill-0, #F2EDE1)"/>
</g>
<g id="Frame 379">
<rect x="722.7" width="90" height="36" rx="18" fill="var(--fill-0, #F2EDE1)"/>
<rect x="722.7" width="90" height="36" rx="18" fill="var(--fill-1, #EAE5D7)"/>
</g>
<g id="Frame 380">
<rect x="823.8" width="90" height="36" rx="18" fill="var(--fill-0, #F2EDE1)"/>
</g>
<g id="Frame 381">
<rect x="924.9" width="90" height="36" rx="18" fill="var(--fill-0, #F2EDE1)"/>
<rect x="924.9" width="90" height="36" rx="18" fill="var(--fill-1, #EAE5D7)"/>
</g>
<g id="Frame 382">
<rect x="1026" width="90" height="36" rx="18" fill="var(--fill-0, #F2EDE1)"/>
</g>
</g>
</svg>
