<svg preserveAspectRatio="none" width="100%" height="100%" overflow="visible" style="display: block;" viewBox="0 0 26.4272 30" fill="none" xmlns="http://www.w3.org/2000/svg">
<path id="Icon" d="M9.46535 27.75C10.4643 28.6317 11.7765 29.1667 13.2136 29.1667C14.6507 29.1667 15.9629 28.6317 16.9619 27.75M21.7136 9.33333C21.7136 7.07899 20.8181 4.91699 19.224 3.32293C17.6299 1.72887 15.4679 0.833333 13.2136 0.833333C10.9593 0.833333 8.79725 1.72887 7.20319 3.32293C5.60913 4.91699 4.7136 7.07899 4.7136 9.33333C4.7136 13.7111 3.60926 16.7084 2.37562 18.691C1.33503 20.3633 0.81473 21.1995 0.833808 21.4327C0.854932 21.691 0.909649 21.7895 1.11778 21.9439C1.30575 22.0833 2.1531 22.0833 3.84781 22.0833H22.5794C24.2741 22.0833 25.1214 22.0833 25.3094 21.9439C25.5175 21.7895 25.5723 21.691 25.5934 21.4327C25.6125 21.1995 25.0922 20.3633 24.0516 18.691C22.8179 16.7084 21.7136 13.7111 21.7136 9.33333Z" stroke="var(--stroke-0, #6D4F3B)" stroke-width="1.66667" stroke-linecap="round" stroke-linejoin="round"/>
</svg>
