<svg preserveAspectRatio="none" width="100%" height="100%" overflow="visible" style="display: block;" viewBox="0 0 21.073 23.3333" fill="none" xmlns="http://www.w3.org/2000/svg">
<g id="Icon">
<path d="M7.71263 19.652L8.34578 21.076C8.534 21.4999 8.84116 21.8601 9.23002 22.1128C9.61888 22.3656 10.0727 22.5001 10.5365 22.5C11.0003 22.5001 11.4542 22.3656 11.843 22.1128C12.2319 21.8601 12.539 21.4999 12.7273 21.076L13.3604 19.652C13.5858 19.1468 13.9649 18.7255 14.4437 18.4483C14.9256 18.1704 15.483 18.052 16.0362 18.1101L17.5854 18.275C18.0466 18.3238 18.5119 18.2377 18.9252 18.0273C19.3384 17.8168 19.6816 17.491 19.9134 17.0894C20.1454 16.6879 20.2559 16.2278 20.2316 15.7648C20.2072 15.3018 20.049 14.8558 19.7761 14.4809L18.8589 13.2206C18.5323 12.7686 18.3578 12.2244 18.3606 11.6667C18.3605 11.1105 18.5366 10.5685 18.8637 10.1187L19.781 8.85843C20.0538 8.48357 20.212 8.03757 20.2364 7.57456C20.2608 7.11155 20.1502 6.65142 19.9182 6.25C19.6865 5.84834 19.3432 5.52253 18.93 5.31208C18.5168 5.10163 18.0514 5.01557 17.5902 5.06435L16.0411 5.22926C15.4878 5.28736 14.9304 5.16896 14.4486 4.89102C13.9688 4.61227 13.5896 4.1888 13.3652 3.6813L12.7273 2.25731C12.539 1.83344 12.2319 1.47327 11.843 1.22052C11.4542 0.967756 11.0003 0.833258 10.5365 0.833333C10.0727 0.833258 9.61888 0.967756 9.23002 1.22052C8.84116 1.47327 8.534 1.83344 8.34578 2.25731L7.71263 3.6813C7.4883 4.1888 7.10908 4.61227 6.6293 4.89102C6.14745 5.16896 5.59002 5.28736 5.0368 5.22926L3.48282 5.06435C3.02167 5.01557 2.55628 5.10163 2.14307 5.31208C1.72986 5.52253 1.38658 5.84834 1.15485 6.25C0.922825 6.65142 0.812284 7.11155 0.836642 7.57456C0.861 8.03757 1.01921 8.48357 1.29207 8.85843L2.2093 10.1187C2.5364 10.5685 2.71255 11.1105 2.71245 11.6667C2.71255 12.2229 2.5364 12.7648 2.2093 13.2146L1.29207 14.4749C1.01921 14.8498 0.861 15.2958 0.836642 15.7588C0.812284 16.2218 0.922825 16.6819 1.15485 17.0833C1.38681 17.4848 1.73013 17.8104 2.14328 18.0208C2.55643 18.2313 3.02171 18.3175 3.48282 18.269L5.03198 18.1041C5.58521 18.046 6.14263 18.1644 6.62448 18.4423C7.10605 18.7203 7.48704 19.1438 7.71263 19.652Z" stroke="var(--stroke-0, #6D4F3B)" stroke-width="1.66667" stroke-linecap="round" stroke-linejoin="round"/>
<path d="M10.5346 14.9167C12.3295 14.9167 13.7846 13.4616 13.7846 11.6667C13.7846 9.87174 12.3295 8.41667 10.5346 8.41667C8.73966 8.41667 7.28458 9.87174 7.28458 11.6667C7.28458 13.4616 8.73966 14.9167 10.5346 14.9167Z" stroke="var(--stroke-0, #6D4F3B)" stroke-width="1.66667" stroke-linecap="round" stroke-linejoin="round"/>
</g>
</svg>
