<svg preserveAspectRatio="none" width="100%" height="100%" overflow="visible" style="display: block;" viewBox="0 0 19 20" fill="none" xmlns="http://www.w3.org/2000/svg">
<path id="A" d="M0 18.5298C0.0539772 18.0397 0.134943 17.6003 0.242898 17.2117C0.368845 16.8061 0.52178 16.4005 0.701705 15.9949L6.61222 14.8289V12.4461L1.02557 13.5615C1.09754 13.0714 1.1875 12.6236 1.29545 12.218C1.40341 11.8124 1.55634 11.4153 1.75426 11.0266L6.61222 10.038V1.92649C6.93608 1.53781 7.29593 1.19138 7.69176 0.8872C8.10559 0.566117 8.58239 0.270384 9.12216 0V9.5564L11.0114 9.17617V2.94043C11.3352 2.56865 11.6951 2.22222 12.0909 1.90114C12.5047 1.58006 12.9725 1.28433 13.4943 1.01394V8.6692L19 7.57921C18.964 7.98479 18.91 8.35657 18.8381 8.69455C18.7301 9.15082 18.5502 9.624 18.2983 10.1141L13.4943 11.0773V12.9024L19 11.7871C18.964 12.2095 18.91 12.5813 18.8381 12.9024C18.7301 13.3756 18.5502 13.8488 18.2983 14.3219L11.0114 15.7668V11.5589L9.12216 11.9392V14.1952C9.12216 14.398 9.05019 14.6092 8.90625 14.8289L7.74574 16.4259C7.42188 16.8652 6.99006 17.1441 6.45028 17.2624L0 18.5298ZM10.9844 20C11.0384 19.5268 11.1193 19.0875 11.2273 18.6819C11.3352 18.2763 11.4882 17.8707 11.6861 17.4651L19 15.9949C18.964 16.5019 18.8831 16.9582 18.7571 17.3638C18.6491 17.7693 18.4962 18.158 18.2983 18.5298L10.9844 20Z" fill="var(--fill-0, black)"/>
</svg>
