<svg preserveAspectRatio="none" width="100%" height="100%" overflow="visible" style="display: block;" viewBox="0 0 20.9883 19.3" fill="none" xmlns="http://www.w3.org/2000/svg">
<path id="Icon" d="M9.23669 2.74232C9.64311 2.68223 10.0624 2.65 10.4942 2.65C15.5992 2.65 18.949 7.15484 20.0744 8.93682C20.2107 9.1525 20.2788 9.26034 20.3169 9.42667C20.3455 9.55159 20.3455 9.74866 20.3168 9.87358C20.2787 10.0399 20.2101 10.1485 20.0729 10.3656C19.7731 10.8401 19.3159 11.5071 18.7102 12.2305M5.21807 4.36504C3.056 5.8317 1.5882 7.86938 0.914855 8.93528C0.778035 9.15187 0.709625 9.26016 0.671489 9.42648C0.642847 9.5514 0.642836 9.74844 0.671463 9.87336C0.70958 10.0397 0.777681 10.1475 0.913884 10.3632C2.03929 12.1452 5.38916 16.65 10.4942 16.65C12.5526 16.65 14.3256 15.9176 15.7826 14.9266M1.49417 0.65L19.4942 18.65M8.37285 7.52868C7.82995 8.07157 7.49417 8.82157 7.49417 9.65C7.49417 11.3069 8.83731 12.65 10.4942 12.65C11.3226 12.65 12.0726 12.3142 12.6155 11.7713" stroke="var(--stroke-0, black)" stroke-width="1.3" stroke-linecap="round" stroke-linejoin="round"/>
</svg>
