<svg preserveAspectRatio="none" width="100%" height="100%" overflow="visible" style="display: block;" viewBox="0 0 20 20" fill="none" xmlns="http://www.w3.org/2000/svg">
<path id="Icon" d="M3.58333 12.0958C1.88625 12.8445 0.833333 13.8877 0.833333 15.0417C0.833333 17.3198 4.93739 19.1667 10 19.1667C15.0626 19.1667 19.1667 17.3198 19.1667 15.0417C19.1667 13.8877 18.1137 12.8445 16.4167 12.0958M15.5 6.33333C15.5 10.0584 11.375 11.8333 10 14.5833C8.625 11.8333 4.5 10.0584 4.5 6.33333C4.5 3.29577 6.96243 0.833333 10 0.833333C13.0376 0.833333 15.5 3.29577 15.5 6.33333ZM10.9167 6.33333C10.9167 6.83959 10.5063 7.25 10 7.25C9.49374 7.25 9.08333 6.83959 9.08333 6.33333C9.08333 5.82707 9.49374 5.41667 10 5.41667C10.5063 5.41667 10.9167 5.82707 10.9167 6.33333Z" stroke="var(--stroke-0, #876647)" stroke-width="1.66667" stroke-linecap="round" stroke-linejoin="round"/>
</svg>
